999
DXF file: C:\Users\paulo\Desktop\Bateau Autonome\profile_aile_018.dxf
999
Pro/ENGINEER 2016260 by Parametric Technology Corporation
  0
SECTION
  2
HEADER
  9
$ACADVER
  1
AC1027
  9
$DWGCODEPAGE
  3
ANSI_1252
  9
$EXTMAX
 10
297.0
 20
210.0
 30
0.0
  9
$EXTMIN
 10
0.0
 20
0.0
 30
0.0
  9
$LIMMIN
 10
0.0
 20
0.0
  9
$LIMMAX
 10
297.0
 20
210.0
  9
$VIEWCTR
 10
148.5
 20
105.0
  9
$VIEWSIZE
 40
210.0
  9
$CLAYER
  8
0
  9
$LTSCALE
 40
16.335
  9
$CELTYPE
  6
BYLAYER
  9
$DIMSCALE
 40
1.0
  9
$DIMASZ
 40
3.5
  9
$DIMEXO
 40
1.0
  9
$DIMDLI
 40
11.286
  9
$DIMEXE
 40
1.5
  9
$DIMCEN
 40
2.673
  9
$DIMLFAC
 40
1.0
  9
$DIMBLK
  1
_FILLED
  9
$DIMALT
 70
0
  9
$DIMALTF
 40
25.4
  9
$DIMTXT
 40
3.5
  9
$DIMTOL
 70
1
  9
$DIMLIM
 70
0
  9
$DIMTFAC
 40
1.0
  9
$DIMTP
 40
0.01
  9
$DIMTM
 40
0.01
  9
$DIMGAP
 40
0.625
  9
$DIMDSEP
 70
44
  9
$AUNITS
 70
0
  9
$PDMODE
 70
3
  9
$PDSIZE
 40
8.0
  9
$HANDSEED
  5
259
  9
$TILEMODE
 70
1
  9
$MEASUREMENT
 70
1
  9
$INSUNITS
 70
4
  0
ENDSEC
  0
SECTION
  2
CLASSES
  0
CLASS
  1
ACDBDICTIONARYWDFLT
  2
AcDbDictionaryWithDefault
  3
AutoCAD 2000
 90
0
 91
1
280
0
281
0
  0
CLASS
  1
ACDBPLACEHOLDER
  2
AcDbPlaceHolder
  3
AutoCAD 2000
 90
0
 91
1
280
0
281
0
  0
CLASS
  1
LAYOUT
  2
AcDbLayout
  3
AutoCAD 2000
 90
0
 91
0
280
0
281
0
  0
ENDSEC
  0
SECTION
  2
TABLES
  0
TABLE
  2
VPORT
  5
8
100
AcDbSymbolTable
 70
2
  0
VPORT
  5
1F4
100
AcDbSymbolTableRecord
100
AcDbViewportTableRecord
  2
*ACTIVE
 70
0
 10
0.0
 20
0.0
 11
1.0
 21
1.0
 12
148.5
 22
105.0
 13
0.0
 23
0.0
 14
1.0
 24
1.0
 15
0.0
 25
0.0
 16
0.0
 26
0.0
 36
1.0
 17
0.0
 27
0.0
 37
0.0
 40
210.0
 41
1.4142857143
 42
50.0
 43
0.0
 44
0.0
 50
0.0
 51
0.0
 71
0
 72
100
 73
1
 74
1
 75
0
 76
0
 77
0
 78
0
  0
ENDTAB
  0
TABLE
  2
LTYPE
  5
5
100
AcDbSymbolTable
 70
6
  0
LTYPE
  5
14
100
AcDbSymbolTableRecord
100
AcDbLinetypeTableRecord
  2
BYBLOCK
 70
0
  3

 72
65
 73
0
 40
0.0
  0
LTYPE
  5
15
100
AcDbSymbolTableRecord
100
AcDbLinetypeTableRecord
  2
BYLAYER
 70
0
  3

 72
65
 73
0
 40
0.0
  0
LTYPE
  5
16
100
AcDbSymbolTableRecord
100
AcDbLinetypeTableRecord
  2
CONTINUOUS
 70
64
  3
Solid line
 72
65
 73
0
 40
0.0
  0
LTYPE
  5
1F5
100
AcDbSymbolTableRecord
100
AcDbLinetypeTableRecord
  2
CENTER
 70
64
  3
____ _ ____ _ ____ _ ____ _ ____ _ ____ _ ____
 72
65
 73
4
 40
0.6
 49
0.375
 74
0
 49
-0.075
 74
0
 49
0.075
 74
0
 49
-0.075
 74
0
  0
LTYPE
  5
1F6
100
AcDbSymbolTableRecord
100
AcDbLinetypeTableRecord
  2
HIDDEN
 70
64
  3
- - - - - - - - - - - - - - - - - - - -
 72
65
 73
2
 40
0.2
 49
0.1
 74
0
 49
-0.1
 74
0
  0
LTYPE
  5
1F7
100
AcDbSymbolTableRecord
100
AcDbLinetypeTableRecord
  2
PHANTOM
 70
64
  3
_____ _ _ _____ _ _ _____ _ _ _____
 72
65
 73
6
 40
0.8
 49
0.45
 74
0
 49
-0.05
 74
0
 49
0.1
 74
0
 49
-0.05
 74
0
 49
0.1
 74
0
 49
-0.05
 74
0
  0
LTYPE
  5
1F8
100
AcDbSymbolTableRecord
100
AcDbLinetypeTableRecord
  2
DOT
 70
64
  3
. . . . . . . . . . . . . . . . . . . .
 72
65
 73
2
 40
0.2
 49
0.1
 74
0
 49
-0.1
 74
0
  0
LTYPE
  5
1F9
100
AcDbSymbolTableRecord
100
AcDbLinetypeTableRecord
  2
DASHED
 70
64
  3
- - - - - - - - - - - - - - - - - - - -
 72
65
 73
2
 40
0.2
 49
0.1
 74
0
 49
-0.1
 74
0
  0
ENDTAB
  0
TABLE
  2
LAYER
  5
2
100
AcDbSymbolTable
 70
36
  0
LAYER
  5
10
100
AcDbSymbolTableRecord
100
AcDbLayerTableRecord
  2
0
 70
0
 62
7
  6
CONTINUOUS
370
-3
390
F
  0
LAYER
  5
1FA
100
AcDbSymbolTableRecord
100
AcDbLayerTableRecord
  2
DEFAULT_1
 70
0
 62
7
  6
CENTER
370
-3
390
F
  0
LAYER
  5
1FB
100
AcDbSymbolTableRecord
100
AcDbLayerTableRecord
  2
DEFAULT_2
 70
0
 62
8
  6
HIDDEN
370
-3
390
F
  0
LAYER
  5
1FC
100
AcDbSymbolTableRecord
100
AcDbLayerTableRecord
  2
DEFAULT_3
 70
0
 62
7
  6
PHANTOM
370
-3
390
F
  0
LAYER
  5
1FD
100
AcDbSymbolTableRecord
100
AcDbLayerTableRecord
  2
01___PRT_ALL_DTM_PLN
 70
0
 62
7
  6
CONTINUOUS
370
-3
390
F
  0
LAYER
  5
1FE
100
AcDbSymbolTableRecord
100
AcDbLayerTableRecord
  2
01___PRT_DEF_DTM_PLN
 70
0
 62
7
  6
CONTINUOUS
370
-3
390
F
  0
LAYER
  5
1FF
100
AcDbSymbolTableRecord
100
AcDbLayerTableRecord
  2
02___PRT_ALL_AXES
 70
0
 62
7
  6
CONTINUOUS
370
-3
390
F
  0
LAYER
  5
200
100
AcDbSymbolTableRecord
100
AcDbLayerTableRecord
  2
03___PRT_ALL_CURVES
 70
0
 62
7
  6
CONTINUOUS
370
-3
390
F
  0
LAYER
  5
201
100
AcDbSymbolTableRecord
100
AcDbLayerTableRecord
  2
04___PRT_ALL_DTM_PNT
 70
0
 62
7
  6
CONTINUOUS
370
-3
390
F
  0
LAYER
  5
202
100
AcDbSymbolTableRecord
100
AcDbLayerTableRecord
  2
05___PRT_ALL_DTM_CSYS
 70
0
 62
7
  6
CONTINUOUS
370
-3
390
F
  0
LAYER
  5
203
100
AcDbSymbolTableRecord
100
AcDbLayerTableRecord
  2
05___PRT_DEF_DTM_CSYS
 70
0
 62
7
  6
CONTINUOUS
370
-3
390
F
  0
LAYER
  5
204
100
AcDbSymbolTableRecord
100
AcDbLayerTableRecord
  2
06___PRT_ALL_SURFS
 70
0
 62
7
  6
CONTINUOUS
370
-3
390
F
  0
LAYER
  5
205
100
AcDbSymbolTableRecord
100
AcDbLayerTableRecord
  2
3_ALL_SYMBOLS
 70
0
 62
7
  6
CONTINUOUS
370
-3
390
F
  0
ENDTAB
  0
TABLE
  2
STYLE
  5
3
100
AcDbSymbolTable
 70
1
  0
STYLE
  5
11
100
AcDbSymbolTableRecord
100
AcDbTextStyleTableRecord
  2
STANDARD
 70
0
 40
0.0
 41
0.85
 50
0.0
 71
0
 42
0.2
  3
txt
  4

  0
STYLE
  5
206
100
AcDbSymbolTableRecord
100
AcDbTextStyleTableRecord
  2
TEXTSTYLE_1
 70
0
 40
0.0
 41
0.8
 50
0.0
 71
0
 42
0.2
  3
gdt
  4

  0
ENDTAB
  0
TABLE
  2
VIEW
  5
6
100
AcDbSymbolTable
 70
0
  0
ENDTAB
  0
TABLE
  2
UCS
  5
7
100
AcDbSymbolTable
 70
0
  0
ENDTAB
  0
TABLE
  2
APPID
  5
9
100
AcDbSymbolTable
 70
1
  0
APPID
  5
207
100
AcDbSymbolTableRecord
100
AcDbRegAppTableRecord
  2
ACAD
 70
0
  0
ENDTAB
  0
TABLE
  2
BLOCK_RECORD
  5
1
100
AcDbSymbolTable
 70
0
  0
BLOCK_RECORD
  5
208
100
AcDbSymbolTableRecord
100
AcDbBlockTableRecord
  2
*Model_Space
  0
BLOCK_RECORD
  5
209
100
AcDbSymbolTableRecord
100
AcDbBlockTableRecord
  2
*Paper_Space
  0
ENDTAB
  0
TABLE
  2
DIMSTYLE
  5
A
100
AcDbSymbolTable
 70
1
100
AcDbDimStyleTable
 71
0
  0
DIMSTYLE
105
20A
100
AcDbSymbolTableRecord
100
AcDbDimStyleTableRecord
  2
STANDARD
 70
0
  3

  4

 40
1.0
 41
3.5
 42
1.0
 43
0.38
 44
1.5
 45
0.0
 46
0.0
 47
0.01
 48
0.01
140
3.5
141
0.09
142
0.0
143
25.4
144
1.0
145
0.0
146
1.0
147
0.625
 71
1.0
 72
0.0
 73
0
 74
0
 75
0
 76
0
 77
1
 78
8
170
0
171
1
172
0
173
0
174
0
175
0
176
0
177
0
178
0
270
2
271
2
272
2
273
2
274
2
275
0
280
0
281
0
282
0
283
1
284
8
285
0
286
0
287
3
288
0
340
11
278
44
  0
ENDTAB
  0
ENDSEC
  0
SECTION
  2
BLOCKS
  0
BLOCK
  5
20
100
AcDbEntity
  8
0
100
AcDbBlockBegin
  2
*Model_Space
 70
0
 10
0.0
 20
0.0
 30
0.0
  3
*Model_Space
  1

  0
ENDBLK
  5
21
100
AcDbEntity
  8
0
100
AcDbBlockEnd
  0
BLOCK
  5
1C
100
AcDbEntity
  8
0
100
AcDbBlockBegin
  2
*Paper_Space
 70
0
 10
0.0
 20
0.0
 30
0.0
  3
*Paper_Space
  1

  0
ENDBLK
  5
1D
100
AcDbEntity
  8
0
100
AcDbBlockEnd
  0
ENDSEC
  0
SECTION
  2
ENTITIES
  0
MTEXT
  5
20B
100
AcDbEntity
  8
0
100
AcDbMText
 62
2
  6
CONTINUOUS
  7
STANDARD
 71
3
 72
1
 10
150.2150494773
 20
81.4481722625
 30
0.0
 11
1.0
 21
0.0
 31
0.0
 44
0.9
  1
ECHELLE  1,000
 40
3.5
 41
41.65
  0
LINE
  5
20C
100
AcDbEntity
  8
0
100
AcDbLine
 62
7
  6
CONTINUOUS
 10
0.0
 20
0.0
 11
0.0
 21
210.0
  0
LINE
  5
20D
100
AcDbEntity
  8
0
100
AcDbLine
 62
7
  6
CONTINUOUS
 10
0.0
 20
0.0
 11
297.0
 21
0.0
  0
LINE
  5
20E
100
AcDbEntity
  8
0
100
AcDbLine
 62
7
  6
CONTINUOUS
 10
0.0
 20
210.0
 11
297.0
 21
210.0
  0
LINE
  5
20F
100
AcDbEntity
  8
0
100
AcDbLine
 62
7
  6
CONTINUOUS
 10
297.0
 20
0.0
 11
297.0
 21
210.0
  0
LINE
  5
210
100
AcDbEntity
  8
0
100
AcDbLine
 62
7
  6
CONTINUOUS
 10
10.2150494773
 20
110.1921723139
 11
10.2150494773
 21
113.1921723139
  0
LINE
  5
211
100
AcDbEntity
  8
0
100
AcDbLine
 62
7
  6
CONTINUOUS
 10
42.1888244586
 20
135.2602505263
 11
42.1888244586
 21
111.6921723139
  0
LINE
  5
212
100
AcDbEntity
  8
0
100
AcDbLine
 62
7
  6
CONTINUOUS
 10
45.1888244586
 20
111.6921723139
 11
45.1888244586
 21
135.7421723139
  0
LINE
  5
213
100
AcDbEntity
  8
03___PRT_ALL_CURVES
100
AcDbLine
 62
4
  6
CONTINUOUS
 10
90.2150494773
 20
138.7011723139
 11
90.2150494773
 21
84.6831723139
  0
LINE
  5
214
100
AcDbEntity
  8
03___PRT_ALL_CURVES
100
AcDbLine
 62
8
  6
HIDDEN
 10
296.9564418537
 20
110.8039122962
 11
296.6335926099
 21
110.7194171675
  0
LINE
  5
215
100
AcDbEntity
  8
03___PRT_ALL_CURVES
100
AcDbLine
 62
8
  6
HIDDEN
 10
275.4510020678
 20
106.1424427461
 11
274.0018626856
 21
105.8726363733
  0
LINE
  5
216
100
AcDbEntity
  8
03___PRT_ALL_CURVES
100
AcDbLine
 62
8
  6
HIDDEN
 10
252.4459721075
 20
101.9846081432
 11
248.3961055186
 21
101.2791165035
  0
LINE
  5
217
100
AcDbEntity
  8
03___PRT_ALL_CURVES
100
AcDbLine
 62
8
  6
HIDDEN
 10
224.4860610309
 20
97.3515334089
 11
222.6882018794
 21
97.0732410434
  0
LINE
  5
218
100
AcDbEntity
  8
03___PRT_ALL_CURVES
100
AcDbLine
 62
8
  6
HIDDEN
 10
178.7550309651
 20
90.9780519
 11
177.0159594533
 21
90.7670435478
  0
LINE
  5
219
100
AcDbEntity
  8
03___PRT_ALL_CURVES
100
AcDbLine
 62
8
  6
HIDDEN
 10
158.8826547218
 20
88.7293848952
 11
158.232484842
 21
88.6621734695
  0
LINE
  5
21A
100
AcDbEntity
  8
0
100
AcDbLine
 62
7
  6
CONTINUOUS
 10
155.2780509279
 20
88.3621723139
 11
158.2324736277
 21
88.6621723139
  0
LINE
  5
21B
100
AcDbEntity
  8
03___PRT_ALL_CURVES
100
AcDbLine
 62
8
  6
HIDDEN
 10
155.2780582147
 20
88.3621730427
 11
153.957289441
 21
88.2309667323
  0
LINE
  5
21C
100
AcDbEntity
  8
0
100
AcDbLine
 62
7
  6
CONTINUOUS
 10
0.3744290007
 20
110.1921723139
 11
10.2150494773
 21
110.1921723139
  0
LINE
  5
21D
100
AcDbEntity
  8
0
100
AcDbLine
 62
7
  6
CONTINUOUS
 10
158.2324736277
 20
111.6921723139
 11
155.2780509279
 21
111.6921723139
  0
LINE
  5
21E
100
AcDbEntity
  8
03___PRT_ALL_CURVES
100
AcDbLine
 62
4
  6
CONTINUOUS
 10
0.2150494773
 20
111.6921723139
 11
10.2150494773
 21
111.6921723139
  0
LINE
  5
21F
100
AcDbEntity
  8
0
100
AcDbLine
 62
7
  6
CONTINUOUS
 10
42.1888244586
 20
111.6921723139
 11
45.1888244586
 21
111.6921723139
  0
LINE
  5
220
100
AcDbEntity
  8
03___PRT_ALL_CURVES
100
AcDbLine
 62
8
  6
HIDDEN
 10
10.2150494773
 20
111.6921723139
 11
68.2150494773
 21
111.6921723139
  0
LINE
  5
221
100
AcDbEntity
  8
03___PRT_ALL_CURVES
100
AcDbLine
 62
4
  6
CONTINUOUS
 10
68.2150494773
 20
111.6921723139
 11
82.2150494773
 21
111.6921723139
  0
LINE
  5
222
100
AcDbEntity
  8
03___PRT_ALL_CURVES
100
AcDbLine
 62
8
  6
HIDDEN
 10
82.2150494773
 20
111.6921723139
 11
296.7425393601
 21
111.6921723139
  0
LINE
  5
223
100
AcDbEntity
  8
03___PRT_ALL_CURVES
100
AcDbLine
 62
4
  6
CONTINUOUS
 10
296.7425393601
 20
111.6921723139
 11
300.2150494773
 21
111.6921723139
  0
LINE
  5
224
100
AcDbEntity
  8
0
100
AcDbLine
 62
7
  6
CONTINUOUS
 10
155.2780509279
 20
111.6921723139
 11
155.2780509279
 21
88.3621723139
  0
LINE
  5
225
100
AcDbEntity
  8
0
100
AcDbLine
 62
7
  6
CONTINUOUS
 10
158.2324736277
 20
88.6621723139
 11
158.2324736277
 21
111.6921723139
  0
LINE
  5
226
100
AcDbEntity
  8
0
100
AcDbLine
 62
7
  6
CONTINUOUS
 10
0.3744290007
 20
113.1921723139
 11
10.2150494773
 21
113.1921723139
  0
LINE
  5
227
100
AcDbEntity
  8
0
100
AcDbLine
 62
7
  6
CONTINUOUS
 10
45.1888244586
 20
135.7421723139
 11
42.1888244586
 21
135.2602505263
  0
LINE
  5
228
100
AcDbEntity
  8
03___PRT_ALL_CURVES
100
AcDbLine
 62
8
  6
HIDDEN
 10
296.9564418537
 20
112.5804323315
 11
296.6293564874
 21
112.6660321125
  0
ARC
  5
229
100
AcDbEntity
  8
03___PRT_ALL_CURVES
100
AcDbCircle
 62
4
  6
CONTINUOUS
 10
73.8728726406
 20
-52.3954247676
 40
190.3116690612
100
AcDbArc
 50
98.6607506425
 51
99.5835055643
  0
ARC
  5
22A
100
AcDbEntity
  8
03___PRT_ALL_CURVES
100
AcDbCircle
 62
8
  6
HIDDEN
 10
72.0610778664
 20
-41.526249288
 40
179.2925487585
100
AcDbArc
 50
99.5908696712
 51
99.805910157
  0
ARC
  5
22B
100
AcDbEntity
  8
03___PRT_ALL_CURVES
100
AcDbCircle
 62
4
  6
CONTINUOUS
 10
251.5360322893
 20
-60.4669350681
 40
178.9089292599
100
AcDbArc
 50
74.2114323371
 51
75.2930975571
  0
ARC
  5
22C
100
AcDbEntity
  8
03___PRT_ALL_CURVES
100
AcDbCircle
 62
8
  6
HIDDEN
 10
68.7857969901
 20
-23.1938709747
 40
160.6702179546
100
AcDbArc
 50
99.7683875547
 51
102.1708973694
  0
ARC
  5
22D
100
AcDbEntity
  8
03___PRT_ALL_CURVES
100
AcDbCircle
 62
8
  6
HIDDEN
 10
65.5583753844
 20
-7.7823405709
 40
144.92468972
100
AcDbArc
 50
102.2081817599
 51
102.5849988311
  0
ARC
  5
22E
100
AcDbEntity
  8
03___PRT_ALL_CURVES
100
AcDbCircle
 62
8
  6
HIDDEN
 10
62.6806448638
 20
4.6970394429
 40
132.1181494178
100
AcDbArc
 50
102.5461913392
 51
104.9300296448
  0
ARC
  5
22F
100
AcDbEntity
  8
03___PRT_ALL_CURVES
100
AcDbCircle
 62
8
  6
HIDDEN
 10
58.9482134574
 20
18.8670309961
 40
117.4649075985
100
AcDbArc
 50
104.9516461623
 51
105.507305265
  0
ARC
  5
230
100
AcDbEntity
  8
03___PRT_ALL_CURVES
100
AcDbCircle
 62
8
  6
HIDDEN
 10
50.8961676808
 20
45.4168600141
 40
89.7162335367
100
AcDbArc
 50
108.623178239
 51
108.9363654838
  0
ARC
  5
231
100
AcDbEntity
  8
03___PRT_ALL_CURVES
100
AcDbCircle
 62
8
  6
HIDDEN
 10
46.8735764846
 20
56.8244079077
 40
77.6207326229
100
AcDbArc
 50
108.8603845578
 51
112.595411269
  0
ARC
  5
232
100
AcDbEntity
  8
03___PRT_ALL_CURVES
100
AcDbCircle
 62
8
  6
HIDDEN
 10
43.3178936707
 20
65.6028448552
 40
68.1500099956
100
AcDbArc
 50
112.6711703882
 51
113.1992342293
  0
ARC
  5
233
100
AcDbEntity
  8
03___PRT_ALL_CURVES
100
AcDbCircle
 62
8
  6
HIDDEN
 10
34.4889095318
 20
84.1935681952
 40
47.5640199889
100
AcDbArc
 50
117.6064511559
 51
118.1914445136
  0
ARC
  5
234
100
AcDbEntity
  8
03___PRT_ALL_CURVES
100
AcDbCircle
 62
8
  6
HIDDEN
 10
28.3270898703
 20
94.6140272676
 40
35.4520606675
100
AcDbArc
 50
123.8915216995
 51
124.6792215943
  0
ARC
  5
235
100
AcDbEntity
  8
03___PRT_ALL_CURVES
100
AcDbCircle
 62
8
  6
HIDDEN
 10
15.1020587602
 20
109.7309608359
 40
15.2889181129
100
AcDbArc
 50
143.3966842403
 51
144.3760150329
  0
ARC
  5
236
100
AcDbEntity
  8
03___PRT_ALL_CURVES
100
AcDbCircle
 62
4
  6
CONTINUOUS
 10
13.2785029922
 20
111.0628731007
 40
13.0786021897
100
AcDbArc
 50
170.8402014059
 51
177.2420511043
  0
ARC
  5
237
100
AcDbEntity
  8
03___PRT_ALL_CURVES
100
AcDbCircle
 62
8
  6
HIDDEN
 10
12.8940239085
 20
111.1174494077
 40
12.6903400972
100
AcDbArc
 50
170.5867627217
 51
170.8071328363
  0
ARC
  5
238
100
AcDbEntity
  8
03___PRT_ALL_CURVES
100
AcDbCircle
 62
8
  6
HIDDEN
 10
12.8656057071
 20
111.074164515
 40
12.6751286275
100
AcDbArc
 50
156.3778802244
 51
157.2714125856
  0
ARC
  5
239
100
AcDbEntity
  8
03___PRT_ALL_CURVES
100
AcDbCircle
 62
8
  6
HIDDEN
 10
12.8766006945
 20
111.1203355914
 40
12.6726794507
100
AcDbArc
 50
170.4093387209
 51
170.5867522555
  0
ARC
  5
23A
100
AcDbEntity
  8
03___PRT_ALL_CURVES
100
AcDbCircle
 62
8
  6
HIDDEN
 10
12.630277486
 20
111.1678250497
 40
12.4218882733
100
AcDbArc
 50
157.2504925393
 51
170.4360278639
  0
CIRCLE
  5
23B
100
AcDbEntity
  8
02___PRT_ALL_AXES
100
AcDbCircle
 62
7
  6
CONTINUOUS
 10
75.2150494773
 20
111.6921723139
 40
7.0
  0
ARC
  5
23C
100
AcDbEntity
  8
02___PRT_ALL_AXES
100
AcDbCircle
 62
7
  6
CONTINUOUS
 10
298.4650494773
 20
111.6921723139
 40
1.75
100
AcDbArc
 50
149.504305598
 51
210.495694402
  0
SPLINE
  5
23D
100
AcDbEntity
  8
03___PRT_ALL_CURVES
100
AcDbSpline
 62
8
  6
HIDDEN
 70
0
 71
3
 72
9
 73
5
 74
0
 42
0.0000001
 43
0.0000001
 44
0.0000000001
 40
0.0
 40
0.0
 40
0.0
 40
0.0
 40
0.5409152145
 40
1.0
 40
1.0
 40
1.0
 40
1.0
 10
296.6335926099
 20
110.7194171675
 30
0.0
 10
292.8496061254
 20
109.7326220206
 30
0.0
 10
285.8063449518
 20
108.1248896724
 30
0.0
 10
278.7120142642
 20
106.7524498532
 30
0.0
 10
275.4510020678
 20
106.1424427461
 30
0.0
  0
SPLINE
  5
23E
100
AcDbEntity
  8
03___PRT_ALL_CURVES
100
AcDbSpline
 62
8
  6
HIDDEN
 70
0
 71
3
 72
9
 73
5
 74
0
 42
0.0000001
 43
0.0000001
 44
0.0000000001
 40
0.0
 40
0.0
 40
0.0
 40
0.0
 40
0.1757678758
 40
1.0
 40
1.0
 40
1.0
 40
1.0
 10
274.0018626856
 20
105.8726363733
 30
0.0
 10
272.7399313847
 20
105.6387041922
 30
0.0
 10
265.5577349771
 20
104.3211436597
 30
0.0
 10
258.3728489054
 20
103.0242261822
 30
0.0
 10
252.4459721075
 20
101.9846081432
 30
0.0
  0
SPLINE
  5
23F
100
AcDbEntity
  8
03___PRT_ALL_CURVES
100
AcDbSpline
 62
8
  6
HIDDEN
 70
0
 71
3
 72
9
 73
5
 74
0
 42
0.0000001
 43
0.0000001
 44
0.0000000001
 40
0.0
 40
0.0
 40
0.0
 40
0.0
 40
0.3424935155
 40
1.0
 40
1.0
 40
1.0
 40
1.0
 10
248.3961055186
 20
101.2791165035
 30
0.0
 10
245.6703589381
 20
100.8077005627
 30
0.0
 10
237.7083968871
 20
99.4515362223
 30
0.0
 10
229.7339140152
 20
98.1672099576
 30
0.0
 10
224.4860610309
 20
97.3515334089
 30
0.0
  0
SPLINE
  5
240
100
AcDbEntity
  8
03___PRT_ALL_CURVES
100
AcDbSpline
 62
8
  6
HIDDEN
 70
0
 71
3
 72
9
 73
5
 74
0
 42
0.0000001
 43
0.0000001
 44
0.0000000001
 40
0.0
 40
0.0
 40
0.0
 40
0.0
 40
0.6242331952
 40
1.0
 40
1.0
 40
1.0
 40
1.0
 10
222.6882018794
 20
97.0732410434
 30
0.0
 10
218.5331560424
 20
96.4327260219
 30
0.0
 10
211.8724154305
 20
95.4352688913
 30
0.0
 10
205.2055265531
 20
94.4807663649
 30
0.0
 10
202.699434855
 20
94.1285821407
 30
0.0
  0
SPLINE
  5
241
100
AcDbEntity
  8
03___PRT_ALL_CURVES
100
AcDbSpline
 62
8
  6
HIDDEN
 70
0
 71
3
 72
8
 73
4
 74
0
 42
0.0000001
 43
0.0000001
 44
0.0000000001
 40
0.0
 40
0.0
 40
0.0
 40
0.0
 40
1.0
 40
1.0
 40
1.0
 40
1.0
 10
202.699434855
 20
94.1285821407
 30
0.0
 10
201.2358532545
 20
93.9229031741
 30
0.0
 10
199.7719660009
 20
93.7194364173
 30
0.0
 10
198.3077675118
 20
93.518265712
 30
0.0
  0
SPLINE
  5
242
100
AcDbEntity
  8
03___PRT_ALL_CURVES
100
AcDbSpline
 62
8
  6
HIDDEN
 70
0
 71
3
 72
9
 73
5
 74
0
 42
0.0000001
 43
0.0000001
 44
0.0000000001
 40
0.0
 40
0.0
 40
0.0
 40
0.0
 40
0.9253977211
 40
1.0
 40
1.0
 40
1.0
 40
1.0
 10
198.3077675118
 20
93.518265712
 30
0.0
 10
192.2822619845
 20
92.6904030923
 30
0.0
 10
185.7653058834
 20
91.8378196001
 30
0.0
 10
179.2417405852
 20
91.0374650932
 30
0.0
 10
178.7550309651
 20
90.9780519
 30
0.0
  0
SPLINE
  5
243
100
AcDbEntity
  8
03___PRT_ALL_CURVES
100
AcDbSpline
 62
8
  6
HIDDEN
 70
0
 71
3
 72
8
 73
4
 74
0
 42
0.0000001
 43
0.0000001
 44
0.0000000001
 40
0.0
 40
0.0
 40
0.0
 40
0.0
 40
1.0
 40
1.0
 40
1.0
 40
1.0
 10
177.0159594533
 20
90.7670435478
 30
0.0
 10
170.9771839677
 20
90.038812153
 30
0.0
 10
164.9327483573
 20
89.3567949714
 30
0.0
 10
158.8826547218
 20
88.7293848952
 30
0.0
  0
SPLINE
  5
244
100
AcDbEntity
  8
03___PRT_ALL_CURVES
100
AcDbSpline
 62
8
  6
HIDDEN
 70
0
 71
3
 72
19
 73
15
 74
0
 42
0.0000001
 43
0.0000001
 44
0.0000000001
 40
0.0
 40
0.0
 40
0.0
 40
0.0
 40
0.0232637452
 40
0.2094417077
 40
0.395161089
 40
0.4879949468
 40
0.5809870939
 40
0.6744452052
 40
0.7690800792
 40
0.8173962732
 40
0.867162994
 40
0.920444686
 40
0.9511229075
 40
1.0
 40
1.0
 40
1.0
 40
1.0
 10
153.957289441
 20
88.2309667323
 30
0.0
 10
152.7101162787
 20
88.1079293333
 30
0.0
 10
141.4797501046
 20
87.0219732698
 30
0.0
 10
120.2542960327
 20
85.3535688597
 30
0.0
 10
95.2191221629
 20
84.5160156194
 30
0.0
 10
75.2029626179
 20
84.8502735593
 30
0.0
 10
60.1786029716
 20
85.7401080069
 30
0.0
 10
45.1263214002
 20
87.4571747288
 30
0.0
 10
32.5973628632
 20
89.8593841328
 30
0.0
 10
22.606731048
 20
92.7101266466
 30
0.0
 10
14.9705227665
 20
95.6073969004
 30
0.0
 10
8.5980276507
 20
99.0353395014
 30
0.0
 10
3.0306525014
 20
103.6639002913
 30
0.0
 10
0.8507469005
 20
107.3732980482
 30
0.0
 10
0.3811015028
 20
110.1523025211
 30
0.0
  0
LINE
  5
245
100
AcDbEntity
  8
03___PRT_ALL_CURVES
100
AcDbLine
 62
8
  6
HIDDEN
 10
0.3811015028
 20
110.1523025211
 11
0.374566837
 21
110.1913407358
  0
LINE
  5
246
100
AcDbEntity
  8
03___PRT_ALL_CURVES
100
AcDbLine
 62
8
  6
HIDDEN
 10
0.374566837
 20
110.1913407358
 11
0.3666764929
 21
110.2395081054
  0
SPLINE
  5
247
100
AcDbEntity
  8
03___PRT_ALL_CURVES
100
AcDbSpline
 62
8
  6
HIDDEN
 70
0
 71
3
 72
18
 73
14
 74
0
 42
0.0000001
 43
0.0000001
 44
0.0000000001
 40
0.0
 40
0.0
 40
0.0
 40
0.0
 40
0.0462351584
 40
0.1064900767
 40
0.2266545086
 40
0.3464270416
 40
0.4658383679
 40
0.5848864123
 40
0.7035706911
 40
0.8219626347
 40
0.8811421386
 40
0.9404225484
 40
1.0
 40
1.0
 40
1.0
 40
1.0
 10
296.6293564874
 20
112.6660321125
 30
0.0
 10
292.8467627783
 20
113.6523716347
 30
0.0
 10
284.0751727877
 20
115.6545594555
 30
0.0
 10
265.237048608
 20
119.1393034528
 30
0.0
 10
240.2674360177
 20
123.6048808185
 30
0.0
 10
210.2590990774
 20
128.2724950394
 30
0.0
 10
180.2610496096
 20
132.3461553813
 30
0.0
 10
150.2610807362
 20
135.6721241339
 30
0.0
 10
120.2542960327
 20
138.030775768
 30
0.0
 10
95.2191221629
 20
138.8683290084
 30
0.0
 10
75.2029626179
 20
138.5340710684
 30
0.0
 10
60.1786029716
 20
137.6442366208
 30
0.0
 10
50.1940770561
 20
136.5052666181
 30
0.0
 10
45.2150494773
 20
135.7461723139
 30
0.0
  0
SPLINE
  5
248
100
AcDbEntity
  8
03___PRT_ALL_CURVES
100
AcDbSpline
 62
8
  6
HIDDEN
 70
0
 71
3
 72
9
 73
5
 74
0
 42
0.0000001
 43
0.0000001
 44
0.0000000001
 40
0.0
 40
0.0
 40
0.0
 40
0.0
 40
0.9107306022
 40
1.0
 40
1.0
 40
1.0
 40
1.0
 10
27.5426503778
 20
132.055789823
 30
0.0
 10
25.9221873193
 20
131.6061002063
 30
0.0
 10
24.1538488063
 20
131.0731570073
 30
0.0
 10
22.4021749328
 20
130.4881388661
 30
0.0
 10
22.2459443099
 20
130.4354889187
 30
0.0
  0
SPLINE
  5
249
100
AcDbEntity
  8
03___PRT_ALL_CURVES
100
AcDbSpline
 62
8
  6
HIDDEN
 70
0
 71
3
 72
9
 73
5
 74
0
 42
0.0000001
 43
0.0000001
 44
0.0000000001
 40
0.0
 40
0.0
 40
0.0
 40
0.0
 40
0.3086389255
 40
1.0
 40
1.0
 40
1.0
 40
1.0
 10
16.4715857819
 20
128.2422862252
 30
0.0
 10
16.0508899493
 20
128.0619721246
 30
0.0
 10
14.6936453124
 20
127.4637713242
 30
0.0
 10
13.3569404817
 20
126.8178715708
 30
0.0
 10
12.4479418047
 20
126.3424915404
 30
0.0
  0
SPLINE
  5
24A
100
AcDbEntity
  8
03___PRT_ALL_CURVES
100
AcDbSpline
 62
8
  6
HIDDEN
 70
0
 71
3
 72
8
 73
4
 74
0
 42
0.0000001
 43
0.0000001
 44
0.0000000001
 40
0.0
 40
0.0
 40
0.0
 40
0.0
 40
1.0
 40
1.0
 40
1.0
 40
1.0
 10
12.0187550611
 20
126.1152589479
 30
0.0
 10
10.8337811699
 20
125.4800609657
 30
0.0
 10
9.6762731622
 20
124.7937007213
 30
0.0
 10
8.5582308844
 20
124.042598758
 30
0.0
  0
SPLINE
  5
24B
100
AcDbEntity
  8
03___PRT_ALL_CURVES
100
AcDbSpline
 62
8
  6
HIDDEN
 70
0
 71
3
 72
9
 73
5
 74
0
 42
0.0000001
 43
0.0000001
 44
0.0000000001
 40
0.0
 40
0.0
 40
0.0
 40
0.0
 40
0.1395490876
 40
1.0
 40
1.0
 40
1.0
 40
1.0
 10
8.1555290932
 20
123.7680448532
 30
0.0
 10
8.0079679314
 20
123.6659412695
 30
0.0
 10
6.9557505328
 20
122.9258420946
 30
0.0
 10
5.9422259439
 20
122.1236791569
 30
0.0
 10
5.1306449949
 20
121.3767717887
 30
0.0
  0
SPLINE
  5
24C
100
AcDbEntity
  8
03___PRT_ALL_CURVES
100
AcDbSpline
 62
8
  6
HIDDEN
 70
0
 71
3
 72
9
 73
5
 74
0
 42
0.0000001
 43
0.0000001
 44
0.0000000001
 40
0.0
 40
0.0
 40
0.0
 40
0.0
 40
0.4791840446
 40
1.0
 40
1.0
 40
1.0
 40
1.0
 10
5.1306449949
 20
121.3767717887
 30
0.0
 10
4.72573287
 20
121.0041264599
 30
0.0
 10
3.9121608374
 20
120.1970139639
 30
0.0
 10
3.1814139122
 20
119.3226448536
 30
0.0
 10
2.8283756731
 20
118.8473044308
 30
0.0
  0
SPLINE
  5
24D
100
AcDbEntity
  8
03___PRT_ALL_CURVES
100
AcDbSpline
 62
8
  6
HIDDEN
 70
0
 71
3
 72
8
 73
4
 74
0
 42
0.0000001
 43
0.0000001
 44
0.0000000001
 40
0.0
 40
0.0
 40
0.0
 40
0.0
 40
1.0
 40
1.0
 40
1.0
 40
1.0
 10
2.6743545971
 20
118.6361944822
 30
0.0
 10
2.1203679931
 20
117.8630265748
 30
0.0
 10
1.6394110714
 20
117.0377023883
 30
0.0
 10
1.2525501727
 20
116.153123747
 30
0.0
  0
SPLINE
  5
24E
100
AcDbEntity
  8
0
100
AcDbSpline
 62
7
  6
CONTINUOUS
 70
0
 71
3
 72
13
 73
9
 74
0
 42
0.0000001
 43
0.0000001
 44
0.0000000001
 40
0.0
 40
0.0
 40
0.0
 40
0.0
 40
0.2466441905
 40
0.404112242
 40
0.5663077279
 40
0.7399589106
 40
0.8399427744
 40
1.0
 40
1.0
 40
1.0
 40
1.0
 10
42.1888244586
 20
135.2602505263
 30
0.0
 10
38.1669516625
 20
134.580633104
 30
0.0
 10
31.6146381972
 20
133.2445483011
 30
0.0
 10
22.606731048
 20
130.6742179811
 30
0.0
 10
14.9705227665
 20
127.7769477273
 30
0.0
 10
8.5980276507
 20
124.3490051263
 30
0.0
 10
3.0208644361
 20
119.7123068114
 30
0.0
 10
0.8379582051
 20
115.9892599168
 30
0.0
 10
0.3744290007
 20
113.1921723139
 30
0.0
  0
SPLINE
  5
24F
100
AcDbEntity
  8
0
100
AcDbSpline
 62
7
  6
CONTINUOUS
 70
0
 71
3
 72
16
 73
12
 74
0
 42
0.0000001
 43
0.0000001
 44
0.0000000001
 40
0.0
 40
0.0
 40
0.0
 40
0.0
 40
0.0811646829
 40
0.1318662902
 40
0.2199244401
 40
0.3021734302
 40
0.3820251483
 40
0.538427312
 40
0.6928846512
 40
0.8465718957
 40
1.0
 40
1.0
 40
1.0
 40
1.0
 10
0.3744290007
 20
110.1921723139
 30
0.0
 10
0.8379582051
 20
107.395084711
 30
0.0
 10
3.0208644361
 20
103.6720378164
 30
0.0
 10
8.5980276507
 20
99.0353395014
 30
0.0
 10
14.9705227665
 20
95.6073969004
 30
0.0
 10
22.606731048
 20
92.7101266466
 30
0.0
 10
32.5973628632
 20
89.8593841328
 30
0.0
 10
45.1263214002
 20
87.4571747288
 30
0.0
 10
60.1786029716
 20
85.7401080069
 30
0.0
 10
75.2030427907
 20
84.850268811
 30
0.0
 10
85.214075018
 20
84.6830939463
 30
0.0
 10
90.2152903349
 20
84.6831723176
 30
0.0
  0
SPLINE
  5
250
100
AcDbEntity
  8
0
100
AcDbSpline
 62
7
  6
CONTINUOUS
 70
0
 71
3
 72
10
 73
6
 74
0
 42
0.0000001
 43
0.0000001
 44
0.0000000001
 40
0.0
 40
0.0
 40
0.0
 40
0.0
 40
0.4604131101
 40
0.9219667833
 40
1.0
 40
1.0
 40
1.0
 40
1.0
 10
90.2152903349
 20
84.6831723176
 30
0.0
 10
100.2202634338
 20
84.6833291
 30
0.0
 10
120.2543760824
 20
85.353575152
 30
0.0
 10
141.9208818979
 20
87.0566479687
 30
0.0
 10
153.5908234392
 20
88.1934051107
 30
0.0
 10
155.2780509279
 20
88.3621723139
 30
0.0
  0
SPLINE
  5
251
100
AcDbEntity
  8
0
100
AcDbSpline
 62
7
  6
CONTINUOUS
 70
0
 71
3
 72
15
 73
11
 74
0
 42
0.0000001
 43
0.0000001
 44
0.0000000001
 40
0.0
 40
0.0
 40
0.0
 40
0.0
 40
0.0577808863
 40
0.1309681155
 40
0.2769230362
 40
0.422401946
 40
0.5674421246
 40
0.7120410513
 40
0.8561981386
 40
1.0
 40
1.0
 40
1.0
 40
1.0
 10
296.9571317059
 20
112.5802511363
 30
0.0
 10
293.0668009476
 20
113.602085844
 30
0.0
 10
284.18619164
 20
115.6340227887
 30
0.0
 10
265.237048608
 20
119.1393034528
 30
0.0
 10
240.2674360177
 20
123.6048808185
 30
0.0
 10
210.2590990774
 20
128.2724950394
 30
0.0
 10
180.2610496096
 20
132.3461553813
 30
0.0
 10
150.2610807362
 20
135.6721241339
 30
0.0
 10
120.2543062789
 20
138.0307749626
 30
0.0
 10
100.2201234193
 20
138.701020212
 30
0.0
 10
90.2150803067
 20
138.7011723134
 30
0.0
  0
SPLINE
  5
252
100
AcDbEntity
  8
0
100
AcDbSpline
 62
7
  6
CONTINUOUS
 70
0
 71
3
 72
10
 73
6
 74
0
 42
0.0000001
 43
0.0000001
 44
0.0000000001
 40
0.0
 40
0.0
 40
0.0
 40
0.0
 40
0.3322046252
 40
0.6649750024
 40
1.0
 40
1.0
 40
1.0
 40
1.0
 10
90.2150803067
 20
138.7011723134
 30
0.0
 10
85.213934997
 20
138.7012483432
 30
0.0
 10
75.2029728677
 20
138.5340716934
 30
0.0
 10
60.1697758609
 20
137.6437137623
 30
0.0
 10
50.1765032092
 20
136.5032616225
 30
0.0
 10
45.1888244586
 20
135.7421723139
 30
0.0
  0
SPLINE
  5
253
100
AcDbEntity
  8
0
100
AcDbSpline
 62
7
  6
CONTINUOUS
 70
0
 71
3
 72
13
 73
9
 74
0
 42
0.0000001
 43
0.0000001
 44
0.0000000001
 40
0.0
 40
0.0
 40
0.0
 40
0.0
 40
0.1573990956
 40
0.3727708143
 40
0.5887940098
 40
0.8055240389
 40
0.9142005414
 40
1.0
 40
1.0
 40
1.0
 40
1.0
 10
158.2324736277
 20
88.6621723139
 30
0.0
 10
165.5683173529
 20
89.4181106843
 30
0.0
 10
182.9222165022
 20
91.399569077
 30
0.0
 10
210.2590990774
 20
95.1118495884
 30
0.0
 10
240.2674360177
 20
99.7794638093
 30
0.0
 10
265.237048608
 20
104.245041175
 30
0.0
 10
284.18619164
 20
107.750321839
 30
0.0
 10
293.0668009476
 20
109.7822587837
 30
0.0
 10
296.9571317059
 20
110.8040934915
 30
0.0
  0
SPLINE
  5
254
100
AcDbEntity
  8
03___PRT_ALL_CURVES
100
AcDbSpline
 62
4
  6
CONTINUOUS
 70
0
 71
3
 72
8
 73
4
 74
0
 42
0.0000001
 43
0.0000001
 44
0.0000000001
 40
0.0
 40
0.0
 40
0.0
 40
0.0
 40
1.0
 40
1.0
 40
1.0
 40
1.0
 10
300.2150494773
 20
111.6921723139
 30
0.0
 10
299.1311834558
 20
111.3855040124
 30
0.0
 10
298.044894512
 20
111.089801005
 30
0.0
 10
296.9564418537
 20
110.8039122962
 30
0.0
  0
SPLINE
  5
255
100
AcDbEntity
  8
03___PRT_ALL_CURVES
100
AcDbSpline
 62
4
  6
CONTINUOUS
 70
0
 71
3
 72
8
 73
4
 74
0
 42
0.0000001
 43
0.0000001
 44
0.0000000001
 40
0.0
 40
0.0
 40
0.0
 40
0.0
 40
1.0
 40
1.0
 40
1.0
 40
1.0
 10
158.232484842
 20
88.6621734695
 30
0.0
 10
157.2478258103
 20
88.5607070733
 30
0.0
 10
156.2630169316
 20
88.4606948731
 30
0.0
 10
155.2780582147
 20
88.3621730427
 30
0.0
  0
SPLINE
  5
256
100
AcDbEntity
  8
03___PRT_ALL_CURVES
100
AcDbSpline
 62
4
  6
CONTINUOUS
 70
0
 71
3
 72
8
 73
4
 74
0
 42
0.0000001
 43
0.0000001
 44
0.0000000001
 40
0.0
 40
0.0
 40
0.0
 40
0.0
 40
1.0
 40
1.0
 40
1.0
 40
1.0
 10
0.3666764929
 20
110.2395081054
 30
0.0
 10
0.2906510833
 20
110.7092722029
 30
0.0
 10
0.2394179299
 20
111.1932608398
 30
0.0
 10
0.2150494773
 20
111.6921723139
 30
0.0
  0
ENDSEC
  0
SECTION
  2
OBJECTS
  0
DICTIONARY
  5
C
100
AcDbDictionary
280
0
281
1
  3
ACAD_GROUP
350
D
  3
ACAD_MLINESTYLE
350
17
  3
ACAD_LAYOUT
350
1A
  3
ACAD_PLOTSETTINGS
350
19
  3
ACAD_PLOTSTYLENAME
350
E
  0
DICTIONARY
  5
D
102
{ACAD_REACTORS
330
C
102
}
100
AcDbDictionary
280
0
281
1
  0
ACDBDICTIONARYWDFLT
  5
E
102
{ACAD_REACTORS
330
C
102
}
100
AcDbDictionary
281
1
  3
Normal
350
F
100
AcDbDictionaryWithDefault
340
F
  0
DICTIONARY
  5
17
102
{ACAD_REACTORS
330
C
102
}
100
AcDbDictionary
280
0
281
1
  3
Standard
350
18
  0
DICTIONARY
  5
19
102
{ACAD_REACTORS
330
C
102
}
100
AcDbDictionary
281
1
  0
DICTIONARY
  5
1A
102
{ACAD_REACTORS
330
C
102
}
100
AcDbDictionary
281
1
  3
Model
350
257
  3
Layout1
350
258
  0
ACDBPLACEHOLDER
  5
F
102
{ACAD_REACTORS
330
E
102
}
  0
MLINESTYLE
  5
18
102
{ACAD_REACTORS
330
17
102
}
100
AcDbMlineStyle
  2
STANDARD
 70
0
  3

 62
256
 51
90.0
 52
90.0
 71
2
 49
0.5
 62
256
  6
BYLAYER
 49
-0.5
 62
256
  6
BYLAYER
  0
LAYOUT
  5
257
102
{ACAD_REACTORS
330
1A
102
}
100
AcDbPlotSettings
  1

  2
none_device
  4
ISO_A4_(297.00_x_210.00_MM)
  6

 40
0.0
 41
0.0
 42
0.0
 43
0.0
 44
297.0
 45
210.0
 46
0.0
 47
0.0
 48
0.0
 49
0.0
140
0.0
141
0.0
142
1.0
143
1.0
 70
1024
 72
1
 73
0
 74
0
  7

 75
0
147
1.0
148
0.0
149
0.0
100
AcDbLayout
  1
Model
 70
0
 71
0
 10
0.0
 20
0.0
 11
297.0
 21
210.0
 12
0.0
 22
0.0
 32
0.0
 14
0.0
 24
0.0
 34
0.0
 15
0.0
 25
0.0
 35
0.0
146
0.0
 13
0.0
 23
0.0
 33
0.0
 16
1.0
 26
0.0
 36
0.0
 17
0.0
 27
1.0
 37
0.0
 76
0
330
208
345
0
346
0
  0
LAYOUT
  5
258
102
{ACAD_REACTORS
330
1A
102
}
100
AcDbPlotSettings
  1

  2
none_device
  4
ISO_A4_(297.00_x_210.00_MM)
  6

 40
0.0
 41
0.0
 42
0.0
 43
0.0
 44
297.0
 45
210.0
 46
0.0
 47
0.0
 48
0.0
 49
0.0
140
0.0
141
0.0
142
1.0
143
1.0
 70
0
 72
1
 73
0
 74
0
  7

 75
0
147
1.0
148
0.0
149
0.0
100
AcDbLayout
  1
Layout1
 70
0
 71
1
 10
0.0
 20
0.0
 11
297.0
 21
210.0
 12
0.0
 22
0.0
 32
0.0
 14
0.0
 24
0.0
 34
0.0
 15
0.0
 25
0.0
 35
0.0
146
0.0
 13
0.0
 23
0.0
 33
0.0
 16
1.0
 26
0.0
 36
0.0
 17
0.0
 27
1.0
 37
0.0
 76
0
330
209
345
0
346
0
  0
ENDSEC
  0
EOF
